<svg width="215" height="30" viewBox="0 0 215 30" fill="none" xmlns="http://www.w3.org/2000/svg">
<path d="M0.81 16H1.593V13.381H2.637C3.861 13.381 4.887 12.85 4.887 11.482V11.446C4.887 10.105 3.87 9.565 2.637 9.565H0.81V16ZM1.593 12.76V10.195H2.691C3.564 10.195 4.104 10.537 4.104 11.446V11.482C4.104 12.31 3.609 12.76 2.691 12.76H1.593ZM5.98549 16H6.73249V13.417C6.73249 12.256 7.33549 11.959 8.28049 11.914V11.212C7.43449 11.239 7.02949 11.608 6.73249 12.139V11.293H5.98549V16ZM11.1904 16.081C12.5314 16.081 13.5124 15.1 13.5124 13.678V13.606C13.5124 12.193 12.5314 11.212 11.1994 11.212C9.86745 11.212 8.88645 12.202 8.88645 13.615V13.687C8.88645 15.064 9.84945 16.081 11.1904 16.081ZM11.1994 15.46C10.2454 15.46 9.66045 14.758 9.66045 13.687V13.615C9.66045 12.535 10.2544 11.833 11.1994 11.833C12.1354 11.833 12.7384 12.535 12.7384 13.624V13.687C12.7384 14.749 12.1444 15.46 11.1994 15.46ZM16.2621 16.081C17.0181 16.081 17.5401 15.694 17.7561 15.253V16H18.5031V11.293H17.7561V14.146C17.7561 14.992 17.1261 15.433 16.4601 15.433C15.7221 15.433 15.3711 15.064 15.3711 14.236V11.293H14.6241V14.272C14.6241 15.568 15.3261 16.081 16.2621 16.081ZM21.7858 16.081C22.4698 16.081 23.1268 15.649 23.3968 15.19V16H24.1438V9.043H23.3968V12.049C23.1268 11.59 22.6408 11.212 21.8578 11.212C20.5618 11.212 19.6618 12.229 19.6618 13.669V13.741C19.6618 15.208 20.5528 16.081 21.7858 16.081ZM21.8668 15.46C21.0748 15.46 20.4358 14.893 20.4358 13.705V13.633C20.4358 12.49 20.9938 11.833 21.9298 11.833C22.8478 11.833 23.4238 12.4 23.4238 13.606V13.678C23.4238 14.884 22.7398 15.46 21.8668 15.46ZM29.4683 16.063C29.7743 16.063 29.9543 16.018 30.1073 15.964V15.334C29.9453 15.397 29.7653 15.433 29.5312 15.433C29.1533 15.433 28.9463 15.208 28.9463 14.749V11.923H30.0443V11.293H28.9463V10.222H28.1993V11.293H27.5243V11.923H28.1993V14.821C28.1993 15.559 28.6133 16.063 29.4683 16.063ZM33.1895 16.081C34.5305 16.081 35.5115 15.1 35.5115 13.678V13.606C35.5115 12.193 34.5305 11.212 33.1985 11.212C31.8665 11.212 30.8855 12.202 30.8855 13.615V13.687C30.8855 15.064 31.8485 16.081 33.1895 16.081ZM33.1985 15.46C32.2445 15.46 31.6595 14.758 31.6595 13.687V13.615C31.6595 12.535 32.2535 11.833 33.1985 11.833C34.1345 11.833 34.7375 12.535 34.7375 13.624V13.687C34.7375 14.749 34.1435 15.46 33.1985 15.46ZM41.3899 16.081C42.6859 16.081 43.5319 15.091 43.5319 13.651V13.579C43.5319 12.112 42.6229 11.212 41.3899 11.212C40.7059 11.212 40.0669 11.626 39.7969 12.085V9.043H39.0499V16H39.7969V15.226C40.0669 15.694 40.6249 16.081 41.3899 16.081ZM41.3179 15.46C40.3999 15.46 39.7699 14.893 39.7699 13.687V13.615C39.7699 12.409 40.4359 11.833 41.3089 11.833C42.1009 11.833 42.7579 12.427 42.7579 13.615V13.687C42.7579 14.83 42.2539 15.46 41.3179 15.46ZM46.6185 16.081C47.6805 16.081 48.4635 15.586 48.6255 14.641H47.8785C47.7795 15.19 47.3565 15.46 46.6275 15.46C45.6645 15.46 45.1515 14.866 45.1155 13.795H48.6615V13.552C48.6615 11.869 47.6355 11.212 46.5465 11.212C45.2505 11.212 44.3415 12.202 44.3415 13.624V13.696C44.3415 15.145 45.2865 16.081 46.6185 16.081ZM45.1425 13.192C45.2685 12.355 45.7815 11.833 46.5465 11.833C47.3205 11.833 47.8245 12.22 47.8965 13.192H45.1425ZM52.1896 17.638H52.9366V15.226C53.2066 15.694 53.7556 16.081 54.5296 16.081C55.8256 16.081 56.6716 15.091 56.6716 13.651V13.579C56.6716 12.112 55.7626 11.212 54.5296 11.212C53.8456 11.212 53.2066 11.626 52.9366 12.085V11.293H52.1896V17.638ZM54.4576 15.46C53.5396 15.46 52.9096 14.893 52.9096 13.687V13.615C52.9096 12.409 53.5756 11.833 54.4486 11.833C55.2406 11.833 55.8976 12.427 55.8976 13.615V13.687C55.8976 14.83 55.3936 15.46 54.4576 15.46ZM59.0112 16.081C59.7042 16.081 60.1272 15.847 60.4782 15.406V16H61.2252V12.895C61.2252 11.581 60.4062 11.212 59.5062 11.212C58.5972 11.212 57.7422 11.608 57.6432 12.679H58.3902C58.4622 12.103 58.8222 11.833 59.4702 11.833C60.1902 11.833 60.4782 12.148 60.4782 12.895V13.237H59.8032C58.5972 13.237 57.4452 13.606 57.4452 14.695C57.4452 15.658 58.1382 16.081 59.0112 16.081ZM59.0832 15.487C58.4262 15.487 58.1922 15.181 58.1922 14.695C58.1922 14.002 58.8852 13.768 59.8302 13.768H60.4782V14.353C60.4782 15.082 59.8752 15.487 59.0832 15.487ZM62.6925 16H63.4395V13.417C63.4395 12.256 64.0425 11.959 64.9875 11.914V11.212C64.1415 11.239 63.7365 11.608 63.4395 12.139V11.293H62.6925V16ZM67.5513 16.063C67.8573 16.063 68.0373 16.018 68.1903 15.964V15.334C68.0283 15.397 67.8483 15.433 67.6143 15.433C67.2363 15.433 67.0293 15.208 67.0293 14.749V11.923H68.1273V11.293H67.0293V10.222H66.2823V11.293H65.6073V11.923H66.2823V14.821C66.2823 15.559 66.6963 16.063 67.5513 16.063ZM73.6543 16.081C74.9953 16.081 75.9763 15.1 75.9763 13.678V13.606C75.9763 12.193 74.9953 11.212 73.6633 11.212C72.3313 11.212 71.3503 12.202 71.3503 13.615V13.687C71.3503 15.064 72.3133 16.081 73.6543 16.081ZM73.6633 15.46C72.7093 15.46 72.1243 14.758 72.1243 13.687V13.615C72.1243 12.535 72.7183 11.833 73.6633 11.833C74.5993 11.833 75.2023 12.535 75.2023 13.624V13.687C75.2023 14.749 74.6083 15.46 73.6633 15.46ZM77.295 16H78.042V11.923H79.194V11.293H78.042V10.447C78.042 9.97 78.24 9.637 78.726 9.637C78.933 9.637 79.122 9.682 79.257 9.736V9.106C79.068 9.043 78.942 9.016 78.699 9.016C77.763 9.016 77.295 9.574 77.295 10.528V11.293H76.62V11.923H77.295V16ZM84.7591 16.081C86.0371 16.081 86.9821 15.262 86.9821 14.182C86.9821 12.967 86.2261 12.535 84.7951 12.31C83.4811 12.112 83.2471 11.788 83.2471 11.158C83.2471 10.555 83.7061 10.114 84.5881 10.114C85.4791 10.114 85.9471 10.447 86.1001 11.257H86.8021C86.6761 10.114 85.8751 9.484 84.5881 9.484C83.3731 9.484 82.5181 10.24 82.5181 11.23C82.5181 12.373 83.3191 12.796 84.6691 13.003C85.8931 13.201 86.2261 13.507 86.2261 14.236C86.2261 14.965 85.5871 15.451 84.7591 15.451C83.4631 15.451 83.1571 14.803 83.0581 14.038H82.3021C82.4191 15.136 83.0401 16.081 84.7591 16.081ZM89.4477 16.081C90.1407 16.081 90.5637 15.847 90.9147 15.406V16H91.6617V12.895C91.6617 11.581 90.8427 11.212 89.9427 11.212C89.0337 11.212 88.1787 11.608 88.0797 12.679H88.8267C88.8987 12.103 89.2587 11.833 89.9067 11.833C90.6267 11.833 90.9147 12.148 90.9147 12.895V13.237H90.2397C89.0337 13.237 87.8817 13.606 87.8817 14.695C87.8817 15.658 88.5747 16.081 89.4477 16.081ZM89.5197 15.487C88.8627 15.487 88.6287 15.181 88.6287 14.695C88.6287 14.002 89.3217 13.768 90.2667 13.768H90.9147V14.353C90.9147 15.082 90.3117 15.487 89.5197 15.487ZM93.129 16H93.876V13.12C93.876 12.274 94.506 11.86 95.118 11.86C95.766 11.86 96.117 12.202 96.117 13.03V16H96.864V13.12C96.864 12.274 97.494 11.86 98.106 11.86C98.754 11.86 99.105 12.202 99.105 13.03V16H99.852V13.084C99.852 11.716 99.114 11.212 98.268 11.212C97.683 11.212 96.981 11.482 96.657 12.094C96.414 11.464 95.883 11.212 95.28 11.212C94.605 11.212 94.092 11.572 93.876 12.013V11.293H93.129V16ZM102.412 16H103.366L105.058 11.293H104.284L102.907 15.244L101.512 11.293H100.702L102.412 16ZM107.175 16.081C107.868 16.081 108.291 15.847 108.642 15.406V16H109.389V12.895C109.389 11.581 108.57 11.212 107.67 11.212C106.761 11.212 105.906 11.608 105.807 12.679H106.554C106.626 12.103 106.986 11.833 107.634 11.833C108.354 11.833 108.642 12.148 108.642 12.895V13.237H107.967C106.761 13.237 105.609 13.606 105.609 14.695C105.609 15.658 106.302 16.081 107.175 16.081ZM107.247 15.487C106.59 15.487 106.356 15.181 106.356 14.695C106.356 14.002 107.049 13.768 107.994 13.768H108.642V14.353C108.642 15.082 108.039 15.487 107.247 15.487ZM110.857 16H111.604V13.417C111.604 12.256 112.207 11.959 113.152 11.914V11.212C112.306 11.239 111.901 11.608 111.604 12.139V11.293H110.857V16ZM115.882 16.081C116.566 16.081 117.223 15.649 117.493 15.19V16H118.24V9.043H117.493V12.049C117.223 11.59 116.737 11.212 115.954 11.212C114.658 11.212 113.758 12.229 113.758 13.669V13.741C113.758 15.208 114.649 16.081 115.882 16.081ZM115.963 15.46C115.171 15.46 114.532 14.893 114.532 13.705V13.633C114.532 12.49 115.09 11.833 116.026 11.833C116.944 11.833 117.52 12.4 117.52 13.606V13.678C117.52 14.884 116.836 15.46 115.963 15.46ZM119.751 16H120.498V13.147C120.498 12.301 121.119 11.86 121.812 11.86C122.568 11.86 122.919 12.229 122.919 13.057V16H123.666V13.111C123.666 11.743 122.982 11.212 122.01 11.212C121.236 11.212 120.714 11.599 120.498 12.04V9.043H119.751V16ZM126.309 16.081C127.002 16.081 127.425 15.847 127.776 15.406V16H128.523V12.895C128.523 11.581 127.704 11.212 126.804 11.212C125.895 11.212 125.04 11.608 124.941 12.679H125.688C125.76 12.103 126.12 11.833 126.768 11.833C127.488 11.833 127.776 12.148 127.776 12.895V13.237H127.101C125.895 13.237 124.743 13.606 124.743 14.695C124.743 15.658 125.436 16.081 126.309 16.081ZM126.381 15.487C125.724 15.487 125.49 15.181 125.49 14.695C125.49 14.002 126.183 13.768 127.128 13.768H127.776V14.353C127.776 15.082 127.173 15.487 126.381 15.487ZM129.99 16H130.737V13.147C130.737 12.301 131.358 11.86 132.051 11.86C132.807 11.86 133.158 12.229 133.158 13.057V16H133.905V13.111C133.905 11.743 133.221 11.212 132.249 11.212C131.475 11.212 130.953 11.599 130.737 12.04V11.293H129.99V16ZM136.548 16.081C137.241 16.081 137.664 15.847 138.015 15.406V16H138.762V12.895C138.762 11.581 137.943 11.212 137.043 11.212C136.134 11.212 135.279 11.608 135.18 12.679H135.927C135.999 12.103 136.359 11.833 137.007 11.833C137.727 11.833 138.015 12.148 138.015 12.895V13.237H137.34C136.134 13.237 134.982 13.606 134.982 14.695C134.982 15.658 135.675 16.081 136.548 16.081ZM136.62 15.487C135.963 15.487 135.729 15.181 135.729 14.695C135.729 14.002 136.422 13.768 137.367 13.768H138.015V14.353C138.015 15.082 137.412 15.487 136.62 15.487Z" fill="#130304"/>
<g clip-path="url(#clip0)">
<path d="M166.831 10.5051C165.914 10.5051 165.317 10.9495 165.038 11.5152V8.08081L163.165 8.84848V16H165.038V13.0101C165.038 12.3232 165.397 12 165.954 12C166.512 12 166.751 12.2828 166.751 12.8889V16H168.624V12.5253C168.624 11.1515 167.867 10.5051 166.831 10.5051ZM150.774 10.5051C150.096 10.5051 149.459 10.7879 148.981 11.3939C148.741 10.8283 148.224 10.5051 147.506 10.5051C146.67 10.5051 146.112 10.9495 145.833 11.4747V10.6667H144V16.0404H145.833V12.9293C145.833 12.3636 146.152 12.0404 146.67 12.0404C147.108 12.0404 147.347 12.3232 147.347 12.8485V16.0404H149.18V12.9293C149.18 12.3636 149.499 12.0404 150.017 12.0404C150.455 12.0404 150.694 12.3232 150.694 12.8485V16.0404H152.527V12.5253C152.527 11.1515 151.77 10.5051 150.774 10.5051ZM161.213 14.0202V11.8384H162.209V10.6263H161.213V9.53535L159.5 10.2626V10.6263H158.902V11.8384H159.5V14.1818C159.5 15.4343 160.137 16 161.253 16C161.651 16 161.97 15.9192 162.209 15.8384V14.4646C162.05 14.5051 161.93 14.5455 161.731 14.5455C161.412 14.5859 161.213 14.4242 161.213 14.0202ZM171.652 10.2626C170.098 10.2626 168.863 11.3535 168.863 13.1313V13.2121C168.863 14.9899 170.058 16 171.692 16C173.246 16 174.162 15.3131 174.322 14.0606H172.648C172.569 14.4242 172.329 14.7071 171.732 14.7071C171.094 14.7071 170.696 14.303 170.656 13.5758H174.282V13.0909C174.282 11.1111 173.086 10.2626 171.652 10.2626ZM170.656 12.5253C170.736 11.8788 171.094 11.5152 171.652 11.5152C172.21 11.5152 172.529 11.8788 172.569 12.5253H170.656ZM155.834 10.2626C154.24 10.2626 152.965 11.3939 152.965 13.1313V13.2121C152.965 14.9899 154.2 16 155.794 16C157.388 16 158.623 14.9495 158.623 13.1313V13.0505C158.663 11.3131 157.428 10.2626 155.834 10.2626ZM156.87 13.1717C156.87 14.101 156.511 14.6263 155.834 14.6263C155.156 14.6263 154.798 14.101 154.798 13.1717V13.0909C154.798 12.1616 155.156 11.6768 155.834 11.6768C156.511 11.6768 156.87 12.202 156.87 13.1313V13.1717ZM199.862 10.9899V16H202.691C203.368 16 203.886 15.4747 203.886 14.8283V8.08081L201.057 9.17172C200.34 9.49495 199.862 10.1818 199.862 10.9899ZM204.803 6.9495V16H207.632C208.309 16 208.827 15.4747 208.827 14.7879V4L205.998 5.13131C205.321 5.45455 204.803 6.14141 204.803 6.9495ZM211.497 1.13131C210.779 1.45455 210.301 2.14141 210.301 2.9495V16.0404H213.13C213.808 16.0404 214.326 15.5152 214.326 14.8283V0L211.497 1.13131ZM176.951 11.6364V10.5455H175.238V16H176.951V13.4141C176.951 12.5253 177.509 12.202 178.545 12.202V10.5051C177.788 10.4646 177.27 10.8283 176.951 11.6364ZM194.045 10.5051C193.128 10.5051 192.531 10.9495 192.252 11.5152V10.6667H190.379V16.0404H192.252V13.0101C192.252 12.3232 192.61 12 193.168 12C193.726 12 193.965 12.2828 193.965 12.8889V16H195.838V12.5253C195.838 11.1515 195.081 10.5051 194.045 10.5051ZM181.613 12.3636C180.976 12.2828 180.737 12.1616 180.737 11.9192C180.737 11.6768 180.936 11.4747 181.334 11.4747C181.733 11.4747 181.932 11.6364 182.012 12.0404H183.605C183.486 10.7071 182.609 10.2626 181.294 10.2626C180.099 10.2626 179.063 10.8283 179.063 12.0808C179.063 13.2121 179.661 13.6566 181.055 13.8586C181.773 13.9798 182.012 14.101 182.012 14.3434C182.012 14.6263 181.812 14.7879 181.374 14.7879C180.856 14.7879 180.697 14.5859 180.657 14.1818H179.023C179.063 15.3939 179.94 16.0404 181.414 16.0404C182.848 16.0404 183.765 15.4343 183.765 14.1414C183.765 12.9293 183.048 12.5657 181.613 12.3636ZM186.833 10.2626C185.239 10.2626 183.964 11.3939 183.964 13.1313V13.2121C183.964 14.9899 185.199 16 186.793 16C188.387 16 189.622 14.9495 189.622 13.1313V13.0505C189.662 11.3131 188.427 10.2626 186.833 10.2626ZM187.869 13.1717C187.869 14.101 187.51 14.6263 186.833 14.6263C186.155 14.6263 185.797 14.101 185.797 13.1717V13.0909C185.797 12.1616 186.155 11.6768 186.833 11.6768C187.51 11.6768 187.869 12.202 187.869 13.1313V13.1717Z" fill="#130304"/>
</g>
<defs>
<clipPath id="clip0">
<rect width="70.2857" height="16" fill="white" transform="translate(144)"/>
</clipPath>
</defs>
</svg>
